<?xml version="1.0" encoding="utf-8"?>
<!-- Generator: Adobe Illustrator 17.1.0, SVG Export Plug-In . SVG Version: 6.00 Build 0)  -->
<!DOCTYPE svg PUBLIC "-//W3C//DTD SVG 1.1//EN" "http://www.w3.org/Graphics/SVG/1.1/DTD/svg11.dtd">
<svg version="1.1" id="Layer_1" xmlns="http://www.w3.org/2000/svg" xmlns:xlink="http://www.w3.org/1999/xlink" x="0px" y="0px"
	 viewBox="0 0 560 132" enable-background="new 0 0 560 132" xml:space="preserve">
<g>
	<defs>
		<rect id="SVGID_1_" x="0.7" y="1" width="558.5" height="131"/>
	</defs>
	<clipPath id="SVGID_2_">
		<use xlink:href="#SVGID_1_"  overflow="visible"/>
	</clipPath>
	<path clip-path="url(#SVGID_2_)" fill="#00B100" d="M67.2,1C31,1,1.7,30.3,1.7,66.5c0,14.7,4.8,28.2,13,39.1L4.4,115.9
		c-3.7,3.7-3.7,9.7,0,13.4c1.8,1.9,4.3,2.8,6.7,2.8c2.4,0,4.8-0.9,6.7-2.8L28.1,119c10.9,8.2,24.5,13,39.1,13
		c36.2,0,65.5-29.3,65.5-65.5S103.4,1,67.2,1 M67.2,115.4c-27,0-48.9-21.9-48.9-48.9c0-27,21.9-48.9,48.9-48.9
		c27,0,48.9,21.9,48.9,48.9C116.1,93.5,94.2,115.4,67.2,115.4"/>
	<polygon clip-path="url(#SVGID_2_)" fill="#00B100" points="72.1,89.1 72.1,76.7 62.3,76.7 62.3,89.1 41,89.1 41,54.7 67.2,36.7 
		93.4,54.7 93.4,89.1 	"/>
	<path clip-path="url(#SVGID_2_)" d="M222,79.6c0,8.5,2.6,15.8,7.8,21.6c5.2,5.8,11.8,8.6,20.3,8.6c8.6,0,15.7-2.2,21.2-6.6
		c0.6-0.5,0.9-0.8,0.9-0.9c-0.1,0-0.2-0.4-0.6-0.9l-2.4-3.3c-0.3-0.2-0.5-0.3-0.6-0.4c-0.3,0.1-0.9,0.4-1.9,1
		c-5.1,3.1-10.4,4.7-15.6,4.7c-5.6,0-10.6-2.2-14.9-6.4c-4.2-4.2-6.5-9.1-6.9-14.6l-0.1-1.6h45c0.8,0,1.1-0.2,1.2-1.2
		c0.2-1.4,0.3-2.7,0.3-3.9c0-7.5-2.4-13.8-7.3-18.7c-4.9-5-10.9-7.4-18.5-7.4c-8.5,0-15.1,2.8-20.3,8.7
		C224.6,63.9,222,71.1,222,79.6 M236.2,60.7c3.8-3.4,8.5-5.1,13.9-5.1c4.9,0,9.2,1.8,12.8,5.4c3.5,3.6,5.4,7.8,5.6,12.6l0.1,1.6
		h-39.2l0.2-1.7C230.1,68.4,232.3,64.1,236.2,60.7"/>
	<path clip-path="url(#SVGID_2_)" d="M373.5,107.8c0.4,0.4,0.7,0.5,0.9,0.5h4.8c0.2,0,0.5,0,0.9-0.5c0.4-0.4,0.5-0.7,0.5-0.9V75
		c0-17.3-7.2-25.7-21.9-25.7c-6.5,0-13.7,3.2-21.5,9.5l-1.3,1.1l-0.9-1.4c-3.8-6.1-9.7-9.1-18-9.1c-3.5,0-6.8,0.6-9.9,1.9
		c-3.1,1.2-5.3,2.5-6.5,3.7l-3.9,3.7l-2-7c-0.1-0.5-0.3-0.7-1-0.7h-2.9c-0.4,0-0.7,0.1-0.9,0.4c-0.4,0.4-0.4,0.7-0.4,0.9v54.6
		c0,0.2,0,0.5,0.4,0.9c0.3,0.3,0.5,0.4,0.9,0.4h4.7c0.2,0,0.5,0,0.9-0.5c0.4-0.4,0.5-0.7,0.5-0.9V66l2.2-2.5
		c1.5-1.6,3.7-3.1,6.7-4.7c3.1-1.6,6.4-2.3,9.8-2.3c7.2,0,15.8,3.2,15.8,18.6v31.8c0,0.2,0,0.5,0.4,0.9c0.3,0.3,0.5,0.4,0.9,0.4h4.8
		c0.4,0,0.7-0.1,0.9-0.4c0.4-0.4,0.4-0.7,0.4-0.9V75c0-2.8-0.2-5.6-0.7-8.3l-0.1-0.8l0.6-0.6c6.3-5.9,12.8-8.9,19.4-8.9
		c6.9,0,15.1,3.2,15.1,18.6v31.8C373,107.1,373.1,107.4,373.5,107.8"/>
	<path clip-path="url(#SVGID_2_)" d="M439.1,107.8c0.3,0.3,0.5,0.4,0.9,0.4h4.8c0.4,0,0.7-0.1,0.9-0.4c0.4-0.4,0.4-0.7,0.4-0.9V75
		c0-17.3-7.2-25.7-21.9-25.7c-3.5,0-7,0.6-10.3,1.9c-3.4,1.2-5.8,2.5-7.4,3.8l-4.2,3.4l-2-6.8c-0.1-0.5-0.3-0.7-1-0.7h-2.9
		c-0.4,0-0.7,0.1-0.9,0.4c-0.4,0.4-0.4,0.7-0.4,0.9v54.6c0,0.2,0,0.5,0.4,0.9c0.3,0.3,0.5,0.4,0.9,0.4h4.7c0.2,0,0.5,0,0.9-0.5
		c0.4-0.4,0.5-0.7,0.5-0.9v-41l2.9-2.6c1.6-1.5,4.1-3,7.5-4.5c3.5-1.5,7-2.3,10.5-2.3c4.8,0,8.5,1.6,11.2,4.8
		c2.6,3.1,3.9,7.7,3.9,13.7v31.8C438.7,107.1,438.7,107.4,439.1,107.8"/>
	<path clip-path="url(#SVGID_2_)" d="M458,79.6c0,8.5,2.6,15.8,7.8,21.6c5.2,5.8,11.8,8.6,20.3,8.6c8.6,0,15.7-2.2,21.2-6.6
		c0.6-0.5,0.9-0.8,0.9-0.9c-0.1,0-0.2-0.4-0.6-0.9l-2.4-3.3c-0.3-0.2-0.5-0.3-0.6-0.4c-0.3,0.1-0.9,0.4-1.9,1
		c-5.1,3.1-10.4,4.7-15.7,4.7c-5.6,0-10.6-2.2-14.9-6.4c-4.2-4.2-6.5-9.1-6.9-14.6l-0.1-1.6h45c0.8,0,1.1-0.2,1.2-1.2
		c0.2-1.4,0.3-2.7,0.3-3.9c0-7.5-2.4-13.8-7.3-18.7c-4.9-5-10.9-7.4-18.5-7.4c-8.5,0-15.1,2.8-20.3,8.7
		C460.6,63.9,458,71.1,458,79.6 M472.2,60.7c3.8-3.4,8.5-5.1,13.9-5.1c4.9,0,9.2,1.8,12.8,5.4c3.5,3.6,5.4,7.8,5.6,12.6l0.1,1.6
		h-39.2l0.2-1.7C466.1,68.4,468.3,64.1,472.2,60.7"/>
	<path clip-path="url(#SVGID_2_)" d="M558.7,103.1l-2.3-3.8c-0.4-0.6-0.7-0.6-0.8-0.6c-0.1,0-0.4,0-0.8,0.3
		c-4.3,2.3-8.3,3.5-11.7,3.5c-2.3,0-4-0.7-5-2c-1-1.3-1.4-3.4-1.4-6.7V56.9h19c0.4,0,0.7-0.1,1-0.4c0.3-0.3,0.4-0.6,0.4-1v-3.3
		c0-1.1-0.3-1.4-1.4-1.4h-19V32.3c0-0.4-0.1-0.7-0.4-1c-0.3-0.3-0.6-0.4-0.8-0.4l-4.7,0.3c-0.5,0-0.8,0.1-1,0.4
		c-0.4,0.4-0.4,0.7-0.4,1v18.2H520c-1.1,0-1.4,0.3-1.4,1.4v3.3c0,0.4,0.1,0.7,0.4,1c0.3,0.3,0.6,0.4,1,0.4h9.2v37.7
		c0,5.1,0.9,9,2.5,11.5c1.6,2.4,4.9,3.6,9.8,3.6c2.9,0,6.1-0.6,9.3-1.7c3.3-1.2,5.7-2.2,7.2-3.2
		C559.2,104.2,559.1,103.8,558.7,103.1"/>
	<path clip-path="url(#SVGID_2_)" d="M203.1,107.8c0.4,0.4,0.7,0.5,0.9,0.5h4.8c0.2,0,0.5,0,0.9-0.5c0.4-0.4,0.5-0.7,0.5-0.9V75
		c0-8.3-1.9-14.8-5.7-19.2c-3.8-4.4-9.1-6.5-16.2-6.5c-3.4,0-6.8,0.6-9.9,1.9c-3.2,1.2-5.6,2.5-7,3.8l-4.8,4.1l0-39.7
		c0-0.4-0.1-0.7-0.4-1c-0.3-0.3-0.6-0.4-0.8-0.4l-4.7,0.3c-0.5,0-0.8,0.1-1,0.4c-0.4,0.4-0.4,0.7-0.4,1l0,87.1c0,0.2,0,0.5,0.5,0.9
		c0.4,0.4,0.7,0.5,0.9,0.5h4.7c0.4,0,0.7-0.1,0.9-0.4c0.4-0.4,0.4-0.7,0.4-0.9V65.8l2.7-2.6c1.8-1.6,4.3-3,7.7-4.5
		c3.4-1.5,7-2.2,10.6-2.2c4.8,0,8.5,1.6,11.2,4.8c2.6,3.1,3.9,7.7,3.9,13.7v31.8C202.7,107.1,202.7,107.4,203.1,107.8"/>
</g>
</svg>
